<svg width="61" height="59" viewBox="0 0 61 59" fill="none" xmlns="http://www.w3.org/2000/svg">
<path d="M30.3275 0L4.67383 14.7547V25.7499C4.6928 25.7499 4.71179 25.7499 4.71179 25.7499C4.73077 25.7499 4.76872 25.7499 4.78769 25.731C4.80667 25.731 4.80666 25.731 4.82563 25.731C4.88256 25.731 4.92052 25.731 4.97744 25.731H5.24307H5.26206C5.35693 25.7499 5.45179 25.7877 5.50871 25.8633C5.62256 26.0144 5.69846 26.2222 5.58462 26.5056L5.50871 26.5623C5.48974 26.5812 5.45179 26.5812 5.43281 26.5812C5.37589 26.6001 5.33795 26.619 5.3 26.619C5.28102 26.619 5.28103 26.619 5.26206 26.619H5.24307C5.22409 26.619 5.20513 26.6378 5.16719 26.6378C5.09129 26.6567 5.01539 26.6756 4.97744 26.6756C4.88257 26.6945 4.86359 26.5434 4.78769 26.4867C4.74974 26.4678 4.73077 26.43 4.69282 26.4111V31.4364L5.28103 30.4729L5.54668 30.0195C5.64155 30.0384 5.75539 30.0762 5.85027 30.0951V15.3971L6.60925 14.9625L29.3408 1.88921L30.3464 1.30355L31.3521 1.88921L54.0836 14.9625L54.8426 15.3971V43.5652L53.6472 44.2453L42.4522 50.6686L30.3464 57.6209L16.2673 49.5351L7.04565 44.2453L5.85027 43.5652V34.2703C5.66052 34.2136 5.4518 34.138 5.28103 34.0624C5.07231 33.9869 4.88257 33.8735 4.69282 33.7791V44.2453L30.3464 59L56 44.2453V14.7547L30.3275 0Z" fill="#44DA96"/>
<path d="M23.7059 16.1717C23.592 16.2472 23.4782 16.3417 23.3643 16.4173C23.0038 16.3606 22.6053 16.3039 22.1689 16.2472C21.9223 16.2094 21.6566 16.1906 21.4099 16.1906C20.2715 16.1906 19.133 16.5306 18.7725 17.513C18.6966 17.7208 18.6586 17.9475 18.6586 18.212C18.6397 18.9488 18.6207 19.9123 18.8863 20.7624C18.8104 20.838 18.7345 20.9136 18.6586 20.9703C18.355 20.1012 18.355 19.0622 18.374 18.1931C18.374 17.8908 18.4309 17.6452 18.5068 17.3997C19.0002 16.0016 20.7458 15.7371 22.2069 15.9261C22.7571 16.0394 23.2505 16.115 23.7059 16.1717Z" fill="#44DA96"/>
<path d="M24.6733 22.5571C24.7112 22.6516 24.7681 22.7271 24.8251 22.8027C24.7492 22.8594 24.6543 22.8972 24.5784 22.9538C24.4835 22.9916 24.4076 23.0483 24.3127 23.0861C24.2558 23.0105 24.1989 22.9161 24.161 22.8405C23.5917 21.8203 23.5348 20.5356 23.5538 19.4966C23.6486 19.5533 23.7435 19.6099 23.8384 19.6666C23.9333 19.7233 24.0281 19.7989 24.123 19.8933C24.142 20.7624 24.2368 21.7636 24.6733 22.5571Z" fill="#44DA96"/>
<path d="M26.2475 16.7953C26.0768 16.8331 25.925 16.8709 25.7732 16.9086C25.0711 17.1353 24.5019 17.551 24.2742 18.2311C24.2362 18.3255 24.2173 18.42 24.1983 18.5145C24.1034 18.4578 24.0275 18.42 23.9326 18.3822C23.8378 18.3444 23.7429 18.3067 23.667 18.2689C23.686 18.1933 23.7049 18.1177 23.7429 18.0422C23.9706 17.3998 24.388 16.9653 24.8814 16.6819C25.0142 16.6064 25.147 16.5308 25.2988 16.4741C25.4696 16.5119 25.6403 16.5686 25.7921 16.6064C25.9439 16.663 26.1147 16.7386 26.2475 16.7953Z" fill="#44DA96"/>
<path d="M22.2443 15.6805C21.4853 15.586 18.9238 15.416 18.2407 17.343C18.1458 17.6075 18.0889 17.9097 18.0889 18.2309C18.0699 18.9866 18.0509 19.969 18.3166 20.8569C18.3545 20.9703 18.3925 21.0836 18.4304 21.197C18.5063 21.1403 18.5822 21.0836 18.6392 21.0081L18.6581 20.9892C18.734 20.9136 18.8099 20.8569 18.8858 20.7813C18.6202 19.9312 18.6392 18.9677 18.6581 18.2309C18.6581 17.9664 18.6961 17.7397 18.772 17.5319C19.1135 16.5495 20.252 16.2095 21.4095 16.2095C21.6751 16.2095 21.9218 16.2284 22.1684 16.2661C22.6048 16.3228 22.9843 16.3795 23.3638 16.4362C23.4777 16.3606 23.5915 16.2661 23.7054 16.1906C23.8192 16.115 23.9331 16.0394 24.0659 15.945C23.5156 15.8505 22.9084 15.7749 22.2443 15.6805ZM26.2669 16.4928C26.1151 16.4173 25.9444 16.3606 25.7546 16.3039C25.5838 16.3417 25.4321 16.3984 25.2613 16.4551C25.1095 16.5117 24.9767 16.5873 24.8438 16.6629C24.9956 16.7007 25.1474 16.7384 25.2803 16.7573C25.451 16.7951 25.6028 16.8518 25.7356 16.8896C25.8874 16.8329 26.0392 16.7951 26.21 16.7762C26.3618 16.7384 26.5136 16.7195 26.6844 16.7195C26.5895 16.644 26.4377 16.5684 26.2669 16.4928ZM24.8249 22.8028C24.7679 22.7272 24.711 22.6517 24.6731 22.5572C24.5972 22.6139 24.5023 22.6517 24.4264 22.7083C24.3315 22.7461 24.2556 22.8028 24.1608 22.8217C24.1987 22.9162 24.2556 22.9917 24.3126 23.0673C24.3695 23.1429 24.4264 23.2373 24.4833 23.3129C24.5782 23.2751 24.6731 23.2373 24.749 23.1806C24.8249 23.1429 24.9197 23.0862 24.9956 23.0295C24.9387 22.9539 24.8818 22.8784 24.8249 22.8028Z" fill="#44DA96"/>
<path d="M31.3902 0.925781L30.5743 13.9235L30.4035 16.5118L30.3846 16.7951L30.3656 17.0785L30.2707 17.0596L30.2517 16.7762L30.2328 16.474L30.081 13.9613L29.2461 0.925781H31.3902Z" fill="#44DA96"/>
<path d="M5.71699 14.5659L30.4409 26.9025L4.8252 16.5118L5.71699 14.5659Z" fill="#44DA96"/>
<path d="M54.9178 14.5659L30.2129 26.9025L55.8096 16.5118L54.9178 14.5659Z" fill="#44DA96"/>
<path d="M19.5305 33.7225L18.4869 34.6104L7.00725 44.2832L6.53288 44.6799L6.41904 44.7744L6.21032 44.5099L5.22363 43.263L5.09082 43.1119L5.22363 43.0174L5.79287 42.6018L17.2915 34.3459L18.5248 33.458C18.8853 33.4958 19.2079 33.6091 19.5305 33.7225Z" fill="#44DA96"/>
<path d="M21.7887 31.1157L21.0108 32.3815L20.8779 31.7769L21.7887 31.1157Z" fill="#44DA96"/>
<path d="M27.4426 27.0537L23.7994 30.1331L23.7046 30.152C23.4769 30.1898 23.2492 30.2087 23.0215 30.2465L27.4426 27.0537Z" fill="#44DA96"/>
<path d="M33.1924 27.0537L33.7996 27.4882C33.7806 27.4882 33.7426 27.4882 33.7237 27.4882L33.1924 27.0537Z" fill="#44DA96"/>
<path d="M55.5247 43.0553L55.3919 43.2064L54.4052 44.4533L54.1965 44.7178L54.1016 44.6233L53.6272 44.2266L40.1553 32.8724L36.3414 29.6608C36.3224 29.5096 36.2845 29.3396 36.2275 29.1885L40.5537 32.2868L54.8226 42.5263L55.3919 42.9419L55.5247 43.0553Z" fill="#44DA96"/>
<path d="M33.9708 18.5521C33.9708 18.5332 33.9708 18.5143 33.9708 18.4954C33.9708 18.4576 33.9708 18.4198 33.9518 18.382C33.9518 18.3442 33.9329 18.3065 33.9329 18.2687C33.9329 18.2309 33.9139 18.1931 33.8949 18.1553C33.8949 18.1364 33.8759 18.1175 33.8759 18.1175V18.0986C33.8569 18.0609 33.857 18.042 33.838 18.0231C33.819 18.0042 33.819 17.9664 33.8 17.9475C33.8 17.9475 33.8 17.9286 33.781 17.9286C33.781 17.9286 33.7811 17.9097 33.7621 17.9097C33.7241 17.8342 33.6482 17.7586 33.5913 17.7019C33.5534 17.6641 33.5344 17.6452 33.4964 17.6075C33.4775 17.5886 33.4395 17.5697 33.4205 17.5319C33.4016 17.513 33.3826 17.4941 33.3446 17.4752C33.3067 17.4374 33.2498 17.3996 33.2118 17.3807C33.2118 17.3807 33.2118 17.3807 33.1928 17.3807C33.1549 17.3619 33.098 17.3241 33.06 17.3052C33.06 17.3052 33.041 17.2863 33.0221 17.2863C32.9841 17.2674 32.9462 17.2485 32.9082 17.2296C32.8323 17.1918 32.7564 17.154 32.6805 17.1351C32.6426 17.1163 32.6046 17.0974 32.5477 17.0785C32.4908 17.0596 32.4149 17.0218 32.339 17.0029C32.301 16.984 32.2631 16.984 32.2441 16.9651C32.0733 16.9084 31.8836 16.8518 31.6749 16.814C31.6369 16.814 31.618 16.7951 31.58 16.7951C31.5231 16.7762 31.4661 16.7573 31.4092 16.7573C31.3523 16.7384 31.3144 16.7384 31.2574 16.7195C31.2195 16.7195 31.1815 16.7006 31.1436 16.7006C31.0487 16.6817 30.9349 16.6628 30.84 16.644C30.7072 16.6251 30.5744 16.6062 30.4226 16.5684C30.3656 16.5495 30.3087 16.5495 30.2518 16.5495C30.1759 16.5306 30.1 16.5306 30.0241 16.5117C29.7774 16.4739 29.5307 16.4361 29.2651 16.3984C29.1892 16.3795 29.1133 16.3795 29.0374 16.3606C28.7718 16.3228 28.5061 16.285 28.2215 16.2661C27.7661 16.2094 26.7605 16.1339 25.7928 16.3795C25.622 16.4173 25.4702 16.4739 25.2994 16.5306C25.1476 16.5873 25.0148 16.6628 24.882 16.7384C24.3886 17.0218 23.9712 17.4563 23.7435 18.0986C23.7245 18.1742 23.7056 18.2498 23.6676 18.3254C23.7625 18.3631 23.8384 18.4009 23.9333 18.4387C24.0281 18.4765 24.104 18.5332 24.1989 18.571C24.2179 18.4765 24.2368 18.382 24.2748 18.2876C24.5215 17.6075 25.0717 17.1918 25.7738 16.9651C25.9256 16.9084 26.0774 16.8707 26.2482 16.8518C26.3999 16.814 26.5517 16.7951 26.7225 16.7951C26.9123 16.7762 27.083 16.7762 27.2728 16.7762C27.5574 16.7762 27.842 16.7951 28.1266 16.8329C28.5441 16.8896 28.9425 16.9462 29.322 16.984C29.3789 16.984 29.4359 17.0029 29.5118 17.0029C29.7774 17.0407 30.0431 17.0785 30.2708 17.1163C30.3087 17.1163 30.3466 17.1351 30.3656 17.1351C31.1626 17.2674 31.7887 17.4185 32.2631 17.5886C32.32 17.6075 32.358 17.6263 32.4149 17.6452C32.4528 17.6641 32.5098 17.683 32.5477 17.7019C32.6236 17.7397 32.6995 17.7775 32.7564 17.8153C32.7754 17.8342 32.7944 17.8342 32.8133 17.853C32.9082 17.9097 32.9841 17.9664 33.06 18.042C33.079 18.0609 33.098 18.0798 33.1169 18.0986C33.1169 18.0986 33.1359 18.1175 33.1549 18.1364C33.1739 18.1553 33.1928 18.1742 33.2118 18.1931C33.2308 18.212 33.2498 18.2498 33.2687 18.2687C33.2877 18.2876 33.3067 18.3254 33.3067 18.3442C33.3257 18.3631 33.3257 18.4009 33.3446 18.4198C33.3826 18.5143 33.3826 18.6087 33.3826 18.7221C33.3636 19.5722 32.8513 22.3494 31.2764 23.7096C30.5744 24.3141 29.7205 24.5597 28.7907 24.4275L28.6389 24.4086C27.4246 24.2386 26.0205 24.0497 25.1666 23.2373C25.1097 23.1806 25.0527 23.1239 24.9958 23.0673C24.9389 22.9917 24.863 22.9161 24.8251 22.8406C24.7681 22.765 24.7112 22.6894 24.6733 22.595C24.2368 21.8015 24.142 20.8002 24.123 19.9123C24.0281 19.8367 23.9333 19.7612 23.8384 19.6856C23.7435 19.6289 23.6486 19.5533 23.5538 19.5156C23.5348 20.5546 23.5917 21.8204 24.161 22.8595C24.1989 22.9539 24.2558 23.0295 24.3127 23.1051C24.3697 23.1806 24.4266 23.2751 24.4835 23.3507C24.5784 23.464 24.6543 23.5585 24.7681 23.6529C25.7738 24.6164 27.3297 24.8242 28.563 24.9943L28.7148 25.0132C28.9046 25.032 29.0943 25.0509 29.2841 25.0509C30.1759 25.0509 30.9728 24.7487 31.6559 24.1441C33.3446 22.6894 33.9518 19.8178 33.9518 18.7221C33.9708 18.6465 33.9708 18.5898 33.9708 18.5521Z" fill="#44DA96"/>
<path d="M39.7387 33.5903C39.7387 33.5714 39.9285 33.2692 40.1561 32.9102C40.289 32.7213 40.4218 32.5135 40.5546 32.3246C40.7823 31.9845 40.972 31.6822 41.029 31.6067C41.3895 30.9076 41.6551 30.1709 41.8639 29.4152C42.2244 28.036 42.3003 26.6002 42.1295 25.2022C42.0156 24.2387 41.769 23.2941 41.4464 22.3684C41.3515 22.0661 41.2187 21.7828 41.1049 21.4994C40.4408 19.9691 39.53 18.5333 38.4674 17.2676C37.3669 15.964 35.9628 14.8683 34.331 14.3582C33.1735 13.9992 31.9022 13.8859 30.593 13.9425C30.4222 13.9425 30.2704 13.9614 30.0996 13.9803C28.3919 14.1315 26.6842 14.6038 25.2801 15.2839C24.8626 15.4917 24.4642 15.6995 24.0847 15.9451C23.9708 16.0207 23.838 16.0962 23.7242 16.1907C23.6103 16.2663 23.4965 16.3607 23.3826 16.4363C22.7944 16.8708 22.2442 17.362 21.7129 17.8721C22.2821 17.891 22.9842 18.0043 23.6672 18.2877C23.6862 18.2122 23.7052 18.1366 23.7431 18.061C23.9708 17.4187 24.3883 16.9842 24.8816 16.7008C25.0144 16.6252 25.1473 16.5497 25.2991 16.493C25.4509 16.4363 25.6216 16.3796 25.7924 16.3418C26.7601 16.0774 27.7657 16.1718 28.2211 16.2285C28.5058 16.2663 28.7714 16.3041 29.037 16.3229C29.1129 16.3229 29.1888 16.3418 29.2647 16.3607C29.5304 16.3985 29.7771 16.4363 30.0237 16.4741C30.0996 16.493 30.1755 16.493 30.2514 16.5119C30.3083 16.5119 30.3653 16.5308 30.4222 16.5308C30.555 16.5497 30.7068 16.5685 30.8396 16.6063C30.9345 16.6252 31.0484 16.6441 31.1432 16.663C31.1812 16.663 31.2191 16.6819 31.2571 16.6819C31.314 16.7008 31.3709 16.7008 31.4089 16.7197C31.4658 16.7386 31.5227 16.7386 31.5796 16.7575C31.6176 16.7575 31.6366 16.7764 31.6745 16.7764C31.8832 16.833 32.073 16.8708 32.2437 16.9275C32.2817 16.9275 32.3196 16.9464 32.3386 16.9653C32.4145 16.9842 32.4714 17.0031 32.5473 17.0408C32.5853 17.0597 32.6232 17.0786 32.6802 17.0975C32.7561 17.1353 32.832 17.1542 32.9079 17.192C32.9458 17.2109 32.9838 17.2298 33.0217 17.2487C33.0217 17.2487 33.0407 17.2676 33.0597 17.2676C33.0976 17.2864 33.1545 17.3242 33.1925 17.3431C33.1925 17.3431 33.1925 17.3431 33.2114 17.3431C33.2684 17.362 33.3063 17.3998 33.3443 17.4376C33.3632 17.4565 33.3822 17.4754 33.4202 17.4943C33.4581 17.5132 33.4771 17.532 33.4961 17.5698C33.534 17.6076 33.553 17.6265 33.5909 17.6643C33.6479 17.7399 33.7238 17.7965 33.7617 17.8721C33.7617 17.8721 33.7617 17.891 33.7807 17.891C33.7807 17.891 33.7807 17.9099 33.7997 17.9099C33.8186 17.9288 33.8376 17.9666 33.8376 17.9855C33.8566 18.0043 33.8566 18.0421 33.8756 18.061C33.8756 18.061 33.8756 18.061 33.8756 18.0799C33.8756 18.0988 33.8945 18.0988 33.8945 18.1177C33.9135 18.1555 33.9135 18.1933 33.9325 18.2311C33.9515 18.2688 33.9515 18.3066 33.9515 18.3444C33.9515 18.3822 33.9704 18.42 33.9704 18.4578C33.9704 18.4766 33.9704 18.4955 33.9704 18.5144C33.9704 18.5522 33.9704 18.6089 33.9704 18.6656C33.9515 19.7613 33.3632 22.6329 31.6745 24.0876C30.9725 24.6921 30.1755 24.9944 29.3027 24.9944C29.1129 24.9944 28.9232 24.9755 28.7335 24.9566L28.5817 24.9377C27.3293 24.7677 25.7924 24.5599 24.7867 23.5964C24.6919 23.5019 24.597 23.4075 24.5021 23.2941C24.4452 23.2186 24.3883 23.143 24.3314 23.0485C24.2744 22.9541 24.2175 22.8785 24.1796 22.8029C23.6103 21.7828 23.5534 20.4981 23.5724 19.459C22.2631 18.76 20.7262 19.0056 20.5364 19.0434C20.1 19.5157 19.6636 19.988 19.2272 20.4603C19.1323 20.5737 19.0374 20.6681 18.9236 20.7626C18.8477 20.8382 18.7718 20.9137 18.6959 20.9704L18.6769 20.9893C18.601 21.046 18.5441 21.1215 18.4682 21.1782C18.2405 21.3671 17.9938 21.5561 17.7282 21.7072C15.2995 23.2941 12.1117 23.7475 9.32246 24.0687C8.96195 24.1065 8.58247 24.1065 8.20298 24.0876C7.40605 24.0309 6.62809 23.8798 5.85013 23.7475C5.66039 23.7098 5.47064 23.6909 5.28089 23.6531C5.09115 23.6153 4.90141 23.5964 4.69269 23.5775C4.59781 23.5586 4.50294 23.5586 4.42704 23.5586C4.31319 23.5586 4.19933 23.5397 4.08549 23.5397C0.935709 23.4453 -0.0889172 25.4289 0.00595565 27.696H0.0439187C0.0439187 27.696 0.119803 27.7338 0.290574 27.8093C0.385447 29.4341 0.992628 31.2288 1.92238 32.6268C2.64342 33.7226 3.59215 34.5349 4.73063 35.0639C4.92037 35.1584 5.11011 35.2339 5.31883 35.2906C5.50858 35.3662 5.69833 35.4229 5.88807 35.4606C6.26756 35.5551 6.66604 35.6307 7.08348 35.6496C7.48194 35.6873 7.91835 35.6873 8.35476 35.6684C9.60709 35.5929 10.8025 35.215 11.9599 34.8561C13.383 34.4216 14.7112 34.0059 16.0774 34.1004C16.4949 34.1382 16.9313 34.1949 17.3867 34.2893C17.7662 34.3649 18.1456 34.4594 18.5441 34.5727C18.8477 34.6672 19.1703 34.7616 19.4928 34.875C19.5498 34.8939 19.7205 34.9694 19.9103 35.0639C20.2708 35.2339 20.5744 35.3662 20.8211 35.4795C17.6903 38.7668 16.6087 46.3803 16.2861 49.5352C16.2672 49.762 16.2482 49.9509 16.2292 50.1209V50.1587L16.1913 50.4799L29.7771 58.3956L30.1755 58.1878L34.8622 55.6563L34.8053 55.5429L38.9418 53.3703L42.3003 51.5945C42.3192 51.5378 42.3192 51.4622 42.3382 51.4056C42.3951 51.16 42.4331 50.8955 42.49 50.6499C44.3116 40.5426 39.7387 33.5903 39.7387 33.5903ZM11.7892 29.6985C11.7702 29.6985 11.7702 29.6985 11.7512 29.6985H11.7892ZM4.48395 25.8068C4.54087 25.7879 4.5978 25.769 4.67369 25.7501C4.69267 25.7501 4.71166 25.7501 4.71166 25.7501C4.73063 25.7501 4.76859 25.7501 4.78756 25.7312C4.80653 25.7312 4.80653 25.7312 4.8255 25.7312C4.88242 25.7312 4.92038 25.7312 4.97731 25.7312H5.24293H5.26192C5.3568 25.7501 5.45166 25.7879 5.50858 25.8635C5.62243 26.0146 5.69833 26.2224 5.58448 26.5058L5.50858 26.5625C5.48961 26.5814 5.45165 26.5814 5.43268 26.5814C5.37575 26.6002 5.33781 26.6191 5.29986 26.6191C5.28089 26.6191 5.2809 26.6191 5.26192 26.6191H5.24293C5.22396 26.6191 5.205 26.638 5.16705 26.638C5.09115 26.6569 5.01526 26.6758 4.97731 26.6758C4.88243 26.6947 4.86346 26.5436 4.78756 26.4869C4.74961 26.468 4.73064 26.4302 4.69269 26.4113C4.65474 26.3924 4.63576 26.3735 4.59781 26.3547C4.55987 26.3358 4.54089 26.3169 4.50294 26.298C4.38909 26.2224 4.25627 26.1846 4.12345 26.1468L4.08549 26.0524C4.19933 25.939 4.33215 25.8635 4.48395 25.8068ZM1.25827 25.5234C1.18237 25.4667 1.0875 25.3912 0.973654 25.3345C0.859806 25.2778 0.726985 25.2211 0.594163 25.1833L0.556223 25.0889C0.67007 24.9755 0.821857 24.9 0.973654 24.8433C1.12545 24.7866 1.29624 24.7488 1.46701 24.7677H1.75163C1.8465 24.7866 1.94136 24.8244 1.99829 24.9C2.11213 25.0511 2.18804 25.2589 2.07419 25.5423L1.99829 25.6179C1.84649 25.6745 1.75163 25.6934 1.65676 25.7123C1.56188 25.7312 1.50496 25.7501 1.46701 25.7501C1.35316 25.7312 1.33417 25.5801 1.25827 25.5234ZM34.5397 35.6496L34.5017 35.7062C34.274 36.1596 29.2268 47.2304 33.6099 55.6374L33.0407 55.9586L33.0217 55.9774L30.3653 57.5077L30.2894 57.4699L17.2918 50.1398C17.4626 48.4206 17.7282 46.5881 18.1077 44.7933C18.1646 44.8122 18.2215 44.85 18.3354 44.9067C18.7718 45.1523 19.2272 45.379 19.6826 45.5679C20.5934 45.9835 21.5421 46.3047 22.4908 46.5503C23.4395 46.7959 24.4262 46.9848 25.3939 47.0793C26.3616 47.1926 27.3483 47.1737 28.316 47.1171C27.3483 47.0226 26.3996 46.9092 25.4698 46.6636C24.5401 46.4558 23.6293 46.1347 22.7754 45.7568C21.9026 45.3979 21.0677 44.9445 20.2708 44.4533C19.8723 44.2077 19.4928 43.9432 19.1323 43.6598C18.9236 43.4898 18.6959 43.3197 18.4872 43.1497C18.62 42.6207 18.7718 42.0918 18.9236 41.6006C19.1703 40.8071 19.4549 40.0325 19.7585 39.3335C19.9293 39.428 20.1 39.5224 20.2708 39.6358C20.7072 39.8814 21.1626 40.1081 21.618 40.297C22.5288 40.7126 23.4775 41.0338 24.4262 41.2794C25.375 41.525 26.3616 41.7139 27.3293 41.8084C28.297 41.9217 29.2837 41.9028 30.2514 41.8462C29.2837 41.7517 28.335 41.6384 27.4052 41.3928C26.4755 41.1849 25.5647 40.8638 24.7108 40.4859C23.838 40.127 23.0031 39.6736 22.2062 39.1824C21.8077 38.9368 21.4282 38.6723 21.0677 38.3889C20.859 38.2378 20.6503 38.0677 20.4605 37.8977C20.9729 36.9909 21.5421 36.273 22.1683 35.7818C22.6806 35.8574 23.1739 35.9329 23.6862 35.9707C24.5591 36.0652 25.4319 36.103 26.3047 36.103C27.1775 36.0841 28.0504 36.0274 28.9042 35.8574C29.7581 35.6873 30.593 35.404 31.333 34.9506C30.555 35.3473 29.7201 35.5173 28.8663 35.6118C28.0124 35.7062 27.1586 35.6685 26.3237 35.6118C25.4698 35.5362 24.6349 35.4229 23.8001 35.2528C23.136 35.1206 22.4529 34.8939 21.8077 34.705C21.8836 34.6861 21.9406 34.705 21.9406 34.705C21.7129 34.6672 20.7452 34.2138 20.3846 34.0437C20.119 33.9115 19.9103 33.8359 19.8534 33.817C19.7585 33.7792 19.6636 33.7415 19.5687 33.7226C19.2272 33.6092 18.9046 33.5148 18.601 33.4203C17.7092 33.1747 16.9123 33.0425 16.1343 32.9858C14.5405 32.8913 13.0415 33.3447 11.5994 33.7981C10.4609 34.1571 9.37939 34.4782 8.25989 34.5538C7.8804 34.5727 7.51989 34.5727 7.17835 34.5349C6.72296 34.4971 6.28654 34.4027 5.88807 34.2893C5.69833 34.2327 5.48961 34.1571 5.31883 34.0815C5.11011 34.0059 4.92037 33.8926 4.73063 33.7981C4.00959 33.3825 3.40242 32.778 2.8901 32.0412C2.24497 31.0777 1.7706 29.8497 1.56188 28.6973C2.20702 28.9806 3.13677 29.3585 4.3132 29.7174L4.73063 31.4933L5.31883 30.5298L5.58448 30.0764C5.67936 30.0953 5.7932 30.1331 5.88807 30.152C5.94499 30.1709 6.00192 30.1897 6.07782 30.1897C7.23527 30.4731 8.37375 30.6432 9.5312 30.7565L10.0056 32.7969L11.163 30.8699C12.3964 30.9265 13.6297 30.9076 14.882 30.8699L15.3184 32.6835L16.4569 30.7943C16.5897 30.7943 16.7226 30.7754 16.8554 30.7754C18.1077 30.7187 19.36 30.6243 20.6123 30.5109L20.9159 31.7956L21.0677 32.419L21.8267 31.1343L22.3201 30.322C22.5667 30.3031 22.8324 30.2653 23.079 30.2275C23.3067 30.1897 23.5344 30.1709 23.7621 30.1331L23.857 30.1142L24.559 30.0197C25.1662 29.9441 25.7924 29.8686 26.3996 29.7741L26.9498 32.1167L28.6576 29.2829C29.1888 29.1318 29.7012 28.9429 30.2135 28.6973L30.3842 28.6217C31.5607 28.0738 32.7561 27.5637 33.7617 27.4693C33.7807 27.4693 33.8186 27.4693 33.8376 27.4693C34.6725 27.3937 35.3746 27.6204 35.8489 28.3194C36.0387 28.6028 36.1715 28.8862 36.2664 29.2074C36.3043 29.3585 36.3612 29.5285 36.3802 29.6797C36.7976 32.3812 34.5586 35.6118 34.5397 35.6496Z" fill="#44DA96"/>
<path d="M30.3841 16.7953C30.3462 16.7953 30.2892 16.7764 30.2513 16.7764C29.6441 16.6819 28.942 16.5874 28.1641 16.493C27.5569 16.4174 26.8928 16.4174 26.2666 16.5119C26.0959 16.5497 25.9251 16.5874 25.7733 16.6252C25.6025 16.663 25.4507 16.7197 25.3179 16.7953C24.7107 17.0598 24.2363 17.4943 24.0087 18.1555C23.9707 18.2311 23.9517 18.3066 23.9328 18.4011C24.0276 18.4389 24.1035 18.4956 24.1984 18.5333C24.2174 18.4389 24.2364 18.3444 24.2743 18.25C24.521 17.5698 25.0712 17.1542 25.7733 16.9275C25.9251 16.8708 26.0769 16.833 26.2477 16.8142C26.3995 16.7764 26.5513 16.7575 26.722 16.7575C26.9118 16.7386 27.0825 16.7386 27.2723 16.7386C27.5569 16.7386 27.8415 16.7575 28.1261 16.7953C28.5436 16.8519 28.942 16.9086 29.3215 16.9464C29.3785 16.9464 29.4354 16.9653 29.5113 16.9653C29.7769 17.0031 30.0426 17.0409 30.2703 17.0786C30.3082 17.0786 30.3462 17.0975 30.3651 17.0975C31.1621 17.2298 31.7882 17.3809 32.2626 17.5509C32.3195 17.5698 32.3575 17.5887 32.4144 17.6076C32.4523 17.6265 32.5093 17.6454 32.5472 17.6643C32.6231 17.7021 32.699 17.7399 32.7559 17.7777C32.7749 17.7965 32.7939 17.7965 32.8129 17.8154C32.9077 17.8721 32.9836 17.9288 33.0595 18.0044C33.0785 18.0232 33.0975 18.0421 33.1164 18.061C33.1164 18.061 33.1354 18.0799 33.1544 18.0988C33.1734 18.1177 33.1923 18.1366 33.2113 18.1555C33.2303 18.1744 33.2493 18.2122 33.2683 18.2311C33.2872 18.25 33.3062 18.2877 33.3062 18.3066C33.3252 18.3255 33.3252 18.3633 33.3441 18.3822C33.3821 18.4767 33.3821 18.5711 33.3821 18.6845C33.3631 19.5346 32.8508 22.3118 31.2759 23.672C30.5739 24.2765 29.72 24.5221 28.7902 24.3899L28.6385 24.371C27.4241 24.201 26.02 24.012 25.1661 23.1997C25.1092 23.143 25.0523 23.0863 24.9953 23.0297C24.9384 22.9541 24.8625 22.8785 24.8246 22.8029C24.7676 22.7274 24.7107 22.6518 24.6728 22.5573C24.2363 21.7639 24.1415 20.7626 24.1225 19.8747C24.0276 19.7991 23.9328 19.7235 23.8379 19.648C23.8379 20.6681 23.9328 21.8017 24.4261 22.6896C24.464 22.7841 24.521 22.8596 24.5779 22.9352C24.6348 23.0108 24.6917 23.0863 24.7487 23.1619C24.8056 23.2375 24.8815 23.313 24.9574 23.3886C25.9251 24.3143 27.462 24.4843 28.7523 24.6733C32.5662 25.2022 33.6667 20.0447 33.6857 18.6656C33.6857 17.6265 32.5662 17.1542 30.3841 16.7953Z" fill="#44DA96"/>
<path d="M33.9708 18.5521C33.9708 18.5332 33.9708 18.5143 33.9708 18.4954C33.9708 18.4576 33.9708 18.4198 33.9518 18.382C33.9518 18.3442 33.9329 18.3065 33.9329 18.2687C33.9329 18.2309 33.9139 18.1931 33.8949 18.1553C33.8949 18.1364 33.8759 18.1175 33.8759 18.1175V18.0986C33.8569 18.0609 33.857 18.042 33.838 18.0231C33.819 18.0042 33.819 17.9664 33.8 17.9475C33.8 17.9475 33.8 17.9286 33.781 17.9286C33.781 17.9286 33.7811 17.9097 33.7621 17.9097C33.7241 17.8342 33.6482 17.7586 33.5913 17.7019C33.5534 17.6641 33.5344 17.6452 33.4964 17.6075C33.4775 17.5886 33.4395 17.5697 33.4205 17.5319C33.4016 17.513 33.3826 17.4941 33.3446 17.4752C33.3067 17.4374 33.2498 17.3996 33.2118 17.3807C33.2118 17.3807 33.2118 17.3807 33.1928 17.3807C33.1549 17.3619 33.098 17.3241 33.06 17.3052C33.06 17.3052 33.041 17.2863 33.0221 17.2863C32.9841 17.2674 32.9462 17.2485 32.9082 17.2296C32.8323 17.1918 32.7564 17.154 32.6805 17.1351C32.6426 17.1163 32.6046 17.0974 32.5477 17.0785C32.4908 17.0596 32.4149 17.0218 32.339 17.0029C32.301 16.984 32.2631 16.984 32.2441 16.9651C32.0733 16.9084 31.8836 16.8518 31.6749 16.814C31.6369 16.814 31.618 16.7951 31.58 16.7951C31.5231 16.7762 31.4661 16.7573 31.4092 16.7573C31.3523 16.7384 31.3144 16.7384 31.2574 16.7195C31.2195 16.7195 31.1815 16.7006 31.1436 16.7006C31.0487 16.6817 30.9349 16.6628 30.84 16.644C30.7072 16.6251 30.5744 16.6062 30.4226 16.5684C30.3656 16.5495 30.3087 16.5495 30.2518 16.5495C30.1759 16.5306 30.1 16.5306 30.0241 16.5117C29.7774 16.4739 29.5307 16.4361 29.2651 16.3984C29.1892 16.3795 29.1133 16.3795 29.0374 16.3606C28.7718 16.3228 28.5061 16.285 28.2215 16.2661C27.7661 16.2094 26.7605 16.1339 25.7928 16.3795C25.622 16.4173 25.4702 16.4739 25.2994 16.5306C25.1476 16.5873 25.0148 16.6628 24.882 16.7384C24.3886 17.0218 23.9712 17.4563 23.7435 18.0986C23.7245 18.1742 23.7056 18.2498 23.6676 18.3254C23.7625 18.3631 23.8384 18.4009 23.9333 18.4387C24.0281 18.4765 24.104 18.5332 24.1989 18.571C24.2179 18.4765 24.2368 18.382 24.2748 18.2876C24.5215 17.6075 25.0717 17.1918 25.7738 16.9651C25.9256 16.9084 26.0774 16.8707 26.2482 16.8518C26.3999 16.814 26.5517 16.7951 26.7225 16.7951C26.9123 16.7762 27.083 16.7762 27.2728 16.7762C27.5574 16.7762 27.842 16.7951 28.1266 16.8329C28.5441 16.8896 28.9425 16.9462 29.322 16.984C29.3789 16.984 29.4359 17.0029 29.5118 17.0029C29.7774 17.0407 30.0431 17.0785 30.2708 17.1163C30.3087 17.1163 30.3466 17.1351 30.3656 17.1351C31.1626 17.2674 31.7887 17.4185 32.2631 17.5886C32.32 17.6075 32.358 17.6263 32.4149 17.6452C32.4528 17.6641 32.5098 17.683 32.5477 17.7019C32.6236 17.7397 32.6995 17.7775 32.7564 17.8153C32.7754 17.8342 32.7944 17.8342 32.8133 17.853C32.9082 17.9097 32.9841 17.9664 33.06 18.042C33.079 18.0609 33.098 18.0798 33.1169 18.0986C33.1169 18.0986 33.1359 18.1175 33.1549 18.1364C33.1739 18.1553 33.1928 18.1742 33.2118 18.1931C33.2308 18.212 33.2498 18.2498 33.2687 18.2687C33.2877 18.2876 33.3067 18.3254 33.3067 18.3442C33.3257 18.3631 33.3257 18.4009 33.3446 18.4198C33.3826 18.5143 33.3826 18.6087 33.3826 18.7221C33.3636 19.5722 32.8513 22.3494 31.2764 23.7096C30.5744 24.3141 29.7205 24.5597 28.7907 24.4275L28.6389 24.4086C27.4246 24.2386 26.0205 24.0497 25.1666 23.2373C25.1097 23.1806 25.0527 23.1239 24.9958 23.0673C24.9389 22.9917 24.863 22.9161 24.8251 22.8406C24.7681 22.765 24.7112 22.6894 24.6733 22.595C24.2368 21.8015 24.142 20.8002 24.123 19.9123C24.0281 19.8367 23.9333 19.7612 23.8384 19.6856C23.7435 19.6289 23.6486 19.5533 23.5538 19.5156C23.5348 20.5546 23.5917 21.8204 24.161 22.8595C24.1989 22.9539 24.2558 23.0295 24.3127 23.1051C24.3697 23.1806 24.4266 23.2751 24.4835 23.3507C24.5784 23.464 24.6543 23.5585 24.7681 23.6529C25.7738 24.6164 27.3297 24.8242 28.563 24.9943L28.7148 25.0132C28.9046 25.032 29.0943 25.0509 29.2841 25.0509C30.1759 25.0509 30.9728 24.7487 31.6559 24.1441C33.3446 22.6894 33.9518 19.8178 33.9518 18.7221C33.9708 18.6465 33.9708 18.5898 33.9708 18.5521Z" fill="#44DA96"/>
</svg>
